<?xml version="1.0" standalone="no"?>
<!DOCTYPE svg PUBLIC "-//W3C//DTD SVG 20010904//EN"
 "http://www.w3.org/TR/2001/REC-SVG-20010904/DTD/svg10.dtd">
<svg version="1.0" xmlns="http://www.w3.org/2000/svg"
 width="700.000000pt" height="700.000000pt" viewBox="0 0 700.000000 700.000000"
 preserveAspectRatio="xMidYMid meet">
<metadata>
Created by potrace 1.11, written by Peter Selinger 2001-2013
</metadata>
<g transform="translate(0.000000,700.000000) scale(0.100000,-0.100000)"
fill="#000000" stroke="none">
<path d="M3460 6333 c-598 -22 -1122 -177 -1545 -459 -121 -81 -209 -153 -328
-272 -181 -179 -305 -350 -412 -567 -105 -214 -170 -433 -196 -652 l-12 -111
-56 -11 c-83 -17 -207 -70 -289 -125 -458 -304 -536 -950 -163 -1348 41 -44
102 -99 137 -124 79 -56 209 -118 296 -139 l68 -17 0 -42 c0 -76 31 -229 70
-347 127 -383 401 -724 794 -983 357 -237 780 -388 1261 -452 61 -8 202 -17
315 -21 1101 -33 2093 464 2485 1246 84 168 155 424 155 557 0 42 1 43 43 54
236 61 427 196 552 389 181 280 191 632 24 928 -63 111 -215 262 -329 326 -80
44 -248 107 -288 107 -15 0 -22 20 -41 117 -101 522 -396 945 -854 1230 -92
57 -364 193 -386 193 -32 0 -1 22 84 61 115 52 122 45 -120 118 -223 66 -389
106 -557 134 -76 12 -138 24 -138 27 0 7 145 103 185 123 l30 15 -45 6 c-133
18 -234 27 -415 36 -110 5 -211 9 -225 8 -14 -1 -59 -3 -100 -5z m-945 -1407
c279 -51 617 -164 887 -297 l97 -47 93 45 c199 98 473 199 683 253 215 55 294
65 515 64 239 0 302 -13 460 -90 129 -64 236 -169 302 -299 79 -156 111 -279
128 -500 28 -349 -63 -660 -278 -955 -82 -112 -271 -295 -397 -384 -60 -43
-109 -82 -107 -87 1 -5 20 -36 42 -68 132 -194 197 -437 171 -649 -71 -585
-666 -1035 -1448 -1094 -739 -57 -1449 291 -1679 822 -52 120 -76 236 -76 370
0 204 53 371 176 555 26 37 43 72 39 75 -5 4 -44 31 -88 60 -216 144 -412 345
-530 545 -133 224 -189 430 -188 690 1 365 84 619 262 795 108 107 240 173
414 206 96 18 400 12 522 -10z m-1534 -1213 c24 -127 60 -244 109 -349 l37
-81 -29 -64 c-39 -84 -93 -247 -110 -328 -7 -35 -18 -65 -25 -68 -6 -3 -49 13
-96 35 -272 127 -401 423 -313 717 44 147 187 301 336 362 l55 22 8 -72 c5
-40 17 -118 28 -174z m5158 205 c47 -22 89 -54 147 -112 125 -126 174 -242
174 -418 0 -171 -63 -314 -191 -432 -63 -58 -224 -146 -238 -130 -5 5 -14 38
-20 73 -14 73 -66 227 -109 321 l-30 65 19 37 c76 149 130 349 154 571 4 31
11 57 17 57 5 0 40 -14 77 -32z"/>
<path d="M2467 4016 c-143 -39 -259 -188 -293 -379 -43 -236 62 -479 245 -569
37 -19 63 -23 131 -23 73 0 92 4 139 29 107 55 202 190 230 324 16 75 14 218
-4 285 -31 119 -111 239 -196 293 -43 27 -131 54 -173 53 -17 0 -52 -6 -79
-13z"/>
<path d="M4366 4014 c-134 -43 -238 -165 -281 -330 -18 -68 -20 -211 -4 -286
28 -134 123 -269 230 -324 47 -25 66 -29 139 -29 69 0 94 4 132 23 183 90 287
334 244 572 -48 265 -260 438 -460 374z"/>
<path d="M3220 2971 c-90 -89 -74 -392 23 -425 73 -26 128 50 135 188 6 106
-16 186 -63 233 -40 40 -58 41 -95 4z"/>
<path d="M3680 2971 c-89 -89 -74 -392 21 -425 47 -16 76 0 105 57 55 108 41
299 -28 368 -37 37 -62 37 -98 0z"/>
<path d="M2417 2123 c-63 -70 6 -229 167 -388 238 -235 565 -367 906 -366 217
0 411 46 606 144 320 161 577 479 488 605 -20 29 -35 29 -326 -13 -395 -56
-558 -68 -833 -62 -244 6 -336 14 -712 67 -247 35 -274 36 -296 13z"/>
</g>
</svg>
